<svg width="1476" height="906" viewBox="0 0 1476 906" fill="none" xmlns="http://www.w3.org/2000/svg">
<g filter="url(#filter0_d_126_6)">
<path d="M419.572 844.952L425.721 848.695L431.549 850.26L430.818 853.402L427.313 853.717L424.664 851.495L424.226 854.04L421.622 856L417.283 855.288L413.891 853.392L409.604 852.482L403.617 848.977L398.566 845.621L390.918 838.681L394.535 839.976L401.323 844.115L407.153 846.349L408.196 843.497L408.086 839.259L410.855 836.715L413.834 837.441L416.199 840.301L419.572 844.952ZM450.456 828.046L454.266 830.785L453.636 832.923L448.864 834.76L446.554 832.617L443.982 835.374L441.3 832.617L445.019 828.958L448.728 830.48L450.456 828.046ZM956.825 819.649L950.656 820.039L951.454 816.846L952.721 814.381L953.325 813.159L955.365 815.038L958.9 815.784L958.715 816.921L956.825 819.649ZM1280.52 767.845L1283.61 769.79L1286.22 769.017L1289.95 767.933L1292.25 768.312L1289.34 775.024L1286.98 776.982L1284.28 781.572L1283.63 780.007L1278.8 783.996L1278.11 783.688L1275.69 783.51L1275.58 778.615L1276.82 774.86L1276.75 769.93L1278.04 767.346L1280.52 767.845ZM1394.31 768.557L1393.97 770.887L1398.17 768.6L1398.04 770.984L1396.71 773.365L1393.68 775.993L1388.58 780.192L1385.14 782.492L1385.01 785.252L1381.82 785.323L1377.04 787.492L1373.66 791.273L1367.73 797.153L1362.92 799.764L1359.85 801.436L1356.23 801.312L1354.84 799.38L1350.72 798.969L1351.36 796.825L1356.14 792.512L1364.63 786.809L1367.89 785.727L1372.09 783.542L1377.33 780.544L1381.48 777.584L1385.69 773.35L1388.04 771.918L1390.39 768.766L1394.69 766.166L1394.31 768.557ZM1414.44 742.119L1414.69 747.898L1416.6 744.145L1417.78 745.642L1416.35 749.806L1418.81 751.606L1421.41 752.048L1424.87 749.941L1426.67 750.579L1423.12 755.492L1420.14 758.738L1417.02 758.623L1415.01 760.318L1414.1 762.723L1412.93 763.764L1409.7 766.789L1405.51 770.648L1401.05 772.902L1401.18 771.418L1399.91 770.604L1404.85 765.971L1405.17 762.885L1401.88 760.648L1403.06 758.628L1407.07 756.686L1409.95 752.416L1411.54 748.845L1411.64 745.159L1412.22 744.192L1411.28 741.931L1410.2 737.101L1410.16 733.254L1411.92 732.828L1412.87 735.845L1415.51 737.256L1414.44 742.119ZM1409.26 668.104L1407.27 669.337L1405.24 667.948L1402.7 665.639L1400.56 662.925L1398.54 659.32L1398.34 657.59L1400.2 657.663L1402.25 659.398L1403.76 661.136L1404.81 662.568L1407.6 665.743L1409.26 668.104ZM1464.49 643.539L1465.69 645L1464.37 647.646L1461.49 648.343L1459.21 647.715L1459.28 645.487L1461.35 643.747L1463.22 644.373L1464.49 643.539ZM1469.43 640.815L1466.39 641.88L1466.23 639.996L1468.64 638.96L1470.09 638.682L1473 637.108L1472.5 639.572L1469.43 640.815ZM1419.03 639.123L1417.45 639.787L1416.39 637.577L1416.81 636.224L1419.03 639.123ZM1417.19 631.4L1417.19 635.459L1416.11 634.827L1415.15 635.1L1414.77 633.709L1415.35 629.854L1417.19 631.4ZM900.791 624.477L901.204 630.519L902.224 632.872L901.654 635.288L900.792 636.771L899.456 633.818L898.546 635.309L899.178 639.046L898.663 641.188L897.379 642.356L896.842 646.644L894.733 652.563L892.093 659.587L888.682 669.293L886.452 676.457L883.993 682.459L880.359 683.689L876.389 685.887L874 684.559L870.702 682.702L869.715 679.967L869.771 675.384L868.53 671.275L868.386 667.577L869.414 663.881L871.486 662.994L871.609 661.291L873.948 657.42L874.543 654.174L873.669 651.766L873.022 648.563L872.928 643.893L874.615 641.064L875.37 637.86L877.576 637.674L880.088 636.64L881.767 635.728L883.707 635.66L886.366 632.79L890.151 629.692L891.597 627.165L891.094 625.02L892.945 625.623L895.54 622.138L895.752 619.127L897.311 616.889L898.766 619.037L899.848 621.167L900.791 624.477ZM1314.09 625.52L1315.12 629.461L1318.23 627.566L1319.38 629.693L1321.21 631.657L1320.41 633.888L1320.66 638.211L1320.9 640.732L1321.91 641.349L1322.34 645.674L1321.43 648.303L1322.19 651.747L1326.42 654.405L1329.02 656.826L1331.49 659.047L1330.65 660.284L1332.45 663.492L1332.87 669.041L1334.88 667.913L1336.12 670.139L1337.38 669.349L1336.79 674.806L1339.07 677.978L1340.57 679.952L1342.83 684.151L1342.87 688.332L1342.12 691.306L1340.86 694.543L1341.55 699.001L1339.82 703.662L1338.28 706.108L1335.55 710.834L1334.59 713.883L1332.4 717.706L1328.76 722.577L1324.64 725.217L1321.52 729.394L1319.09 732.068L1316 736.755L1313.29 739.471L1310.57 743.564L1308.45 747.347L1307.93 749.089L1304.71 751.006L1299.95 751.207L1295.12 753.476L1292.28 755.624L1288.73 758.01L1286.33 755.553L1284.19 754.575L1286.05 751.688L1283.33 752.735L1277.99 756.752L1275.02 755.245L1273.02 754.367L1270.79 753.971L1267.4 752.369L1266.06 748.965L1266.91 744.789L1266.99 742.02L1265.76 739.803L1261.94 739.146L1264.3 736.503L1264.72 732.471L1261.31 736.229L1257.19 737.229L1260.48 734.221L1262.22 731.093L1264.77 728.446L1265.79 724.457L1260.77 729.052L1257.49 730.901L1254.36 735.214L1251.84 732.98L1252.96 730.107L1251.61 726.194L1250.03 724.178L1251.23 722.937L1246.8 719.689L1243.85 719.536L1240.54 716.933L1232.74 717.439L1226.64 719.353L1221.24 721.141L1217.28 720.785L1211.94 723.536L1207.88 724.777L1206.2 727.601L1203.95 729.795L1200.31 729.926L1197.5 730.407L1194.05 729.421L1190.83 730.011L1187.84 730.259L1184.44 733.147L1183.28 732.902L1180.69 734.435L1178.12 736.163L1175.11 735.949L1172.28 735.947L1168.83 732.48L1166.85 731.452L1167.84 728.354L1170.16 727.619L1171.23 726.392L1171.63 724.459L1173.19 720.727L1173.57 717.556L1172.72 712.17L1172.79 709.139L1173.73 706.123L1172.85 702.687L1173.11 701.139L1171.69 699.043L1172.09 694.933L1170.53 690.794L1170.41 688.568L1171.83 690.824L1171.4 685.99L1173.23 687.499L1174.08 689.517L1174.58 686.848L1173.28 682.757L1173.19 681.123L1172.49 679.574L1173.54 676.583L1174.68 675.312L1175.76 672.733L1175.85 669.725L1178.31 666.03L1177.94 669.941L1180.42 666.408L1184.27 664.693L1186.78 662.51L1190.45 660.633L1192.51 660.234L1193.61 660.864L1197.38 658.96L1200.14 658.394L1200.99 657.276L1202.23 656.811L1204.63 656.931L1209.49 655.439L1212.25 653.179L1213.81 650.462L1216.79 647.885L1217.3 645.862L1217.83 643.109L1221.53 638.814L1222.75 643.178L1224.78 642.168L1223.56 639.78L1225.28 637.331L1227.08 638.424L1228.14 634.587L1230.88 632.11L1232.2 630.125L1234.53 629.269L1234.78 627.865L1236.65 628.451L1236.88 627.189L1238.91 626.47L1241.13 625.793L1244.11 628.097L1246.18 631.074L1248.93 631.108L1251.68 631.58L1251.11 628.819L1253.73 624.793L1255.89 623.483L1255.35 622.23L1257.6 619.37L1260.48 617.605L1262.68 618.199L1266.5 617.257L1266.7 614.702L1263.63 613.058L1266.06 612.332L1268.87 613.57L1271 615.619L1274.59 616.898L1275.91 616.392L1278.48 617.93L1281.23 616.498L1282.85 616.933L1283.99 615.973L1285.74 618.447L1284.24 621.127L1282.31 623.151L1280.77 623.318L1281.03 625.323L1279.4 627.831L1277.49 630.301L1277.61 631.721L1280.72 634.503L1283.87 636.118L1285.88 637.855L1288.59 640.847L1289.83 640.842L1291.92 642.136L1292.33 643.699L1296.23 645.417L1299.44 643.686L1300.76 640.97L1302.02 638.732L1303 635.966L1304.95 631.958L1304.69 629.526L1305.22 628.064L1305.1 625.191L1306.18 621.414L1307.16 620.397L1306.67 618.725L1308.06 616.074L1309.21 613.329L1309.48 611.904L1311.33 610.035L1312.32 612.476L1312.27 615.61L1313.3 616.215L1313.24 618.315L1314.53 620.862L1314.49 623.698L1314.09 625.52ZM1398.35 609.11L1399.39 610.824L1396.3 610.792L1394.97 607.724L1397.48 608.93L1398.35 609.11ZM1214.86 607.897L1212.99 607.992L1207.39 604.501L1211.6 603.522L1213.81 605.039L1215.24 606.552L1214.86 607.897ZM1393.08 606.07L1391.34 606.181L1388.67 605.677L1387.83 604.909L1388.31 602.932L1391.16 603.716L1392.49 604.761L1393.08 606.07ZM1396.9 604.71L1396.13 605.628L1393.29 601.313L1392.65 598.341H1394.16L1395.37 602.321L1396.9 604.71ZM1231.41 607.401L1227.51 608.498L1227.03 607.899L1227.58 606.205L1229.73 603.167L1234.28 601.19L1234.89 600.016L1238.79 598.898L1241.9 598.73L1243.34 598.109L1244.97 598.725L1243.24 600.073L1238.44 602.251L1234.61 603.68L1231.41 607.401ZM1203.17 597.226L1204.68 598.552L1207.45 598.145L1208.41 600.26L1203.2 601.259L1200.08 601.927L1197.7 601.887L1199.42 599.023L1201.86 598.984L1203.17 597.226ZM1225.4 597.219L1224.55 599.981L1217.77 601.393L1211.91 600.78L1212.03 598.962L1215.63 597.928L1218.3 599.419L1221.29 599.04L1225.4 597.219ZM1389.51 598.427L1389.61 599.426L1386.32 597.318L1384.04 595.532L1382.51 593.878L1383.21 593.372L1385.16 594.564L1388.61 596.85L1389.51 598.427ZM1379.55 593.51L1378.65 593.793L1376.79 592.661L1375.12 590.622L1375.41 589.795L1377.91 591.891L1379.55 593.51ZM1162.33 590.68L1170.82 591.175L1171.9 589.129L1180.03 591.515L1181.46 594.734L1188.07 595.64L1193.33 598.594L1188.14 600.488L1183.39 598.485L1179.36 598.62L1174.77 598.252L1170.67 597.36L1165.64 595.462L1162.41 594.969L1160.52 595.591L1152.54 593.545L1151.88 591.411L1147.83 591.046L1151.1 586.305L1156.48 586.598L1159.98 588.537L1161.81 588.915L1162.33 590.68ZM1278.52 587.885L1276.03 591.263L1275.82 587.528L1276.71 585.746L1277.73 584.07L1278.66 585.52L1278.52 587.885ZM1372.38 590.89L1371.1 591.386L1369.31 589.48L1367.57 586.33L1366.84 582.554L1367.48 582.075L1367.88 583.549L1369.16 584.674L1371.12 587.817L1373.1 589.5L1372.38 590.89ZM1355.48 584.234L1353.13 584.641L1352.35 586.032L1349.84 587.237L1347.48 588.398L1345.12 588.391L1341.57 586.951L1339.11 585.568L1339.57 584.034L1343.51 584.758L1345.97 584.37L1346.77 581.994L1347.41 581.871L1347.7 584.502L1350.26 584.124L1351.61 582.428L1354.19 580.661L1353.83 577.742L1356.5 577.648L1357.36 578.461L1357.14 581.209L1355.48 584.234ZM1245.86 574.233L1244.14 575.876L1241.1 574.967L1240.29 572.838L1244.8 572.601L1245.86 574.233ZM1260.26 572.425L1261.76 576.21L1258.06 574.17L1254.36 573.756L1251.84 574.083L1248.76 573.908L1249.89 571.187L1255.39 570.982L1260.26 572.425ZM1360.89 579.387L1359.43 580.707L1358.73 577.783L1357.77 575.87L1355.82 574.248L1353.36 572.136L1350.19 570.682L1351.46 569.487L1353.82 570.872L1355.3 571.961L1357.13 573.149L1358.84 575.228L1360.47 576.812L1360.89 579.387ZM1276.79 562.817L1277.89 570.819L1282.41 573.781L1286.27 568.532L1291.43 565.546L1295.39 565.542L1299.17 567.267L1302.43 569.037L1307.19 569.982L1314.82 573.392L1322.95 576.225L1325.91 578.762L1328.27 581.253L1328.8 584.172L1336.03 587.237L1336.94 589.868L1332.81 590.402L1333.56 593.71L1337.27 596.969L1339.69 602.244L1342.25 602.079L1341.86 604.284L1345.2 605.13L1343.78 606.07L1348.27 608.167L1347.62 609.609L1344.65 609.956L1343.7 608.664L1339.95 608.103L1335.54 607.353L1332.41 604.175L1330.15 601.437L1328.21 597.085L1322.59 594.913L1318.72 596.329L1315.87 597.97L1316.13 601.639L1312.49 603.35L1310.08 602.518L1305.5 602.31L1301.89 598.227L1297.46 597.228L1296.26 598.644L1290.62 598.797L1292.81 594.752L1295.71 593.373L1294.9 587.977L1292.99 583.814L1284.56 579.618L1280.91 579.204L1274.4 574.628L1273 577.034L1271.27 577.471L1270.33 575.655L1270.38 573.504L1267.05 571.073L1271.89 569.291L1275.06 569.387L1274.72 568.074L1268.2 568.064L1266.49 565.119L1262.52 564.206L1260.66 561.758L1266.67 560.56L1268.96 558.948L1276.1 560.979L1276.79 562.817ZM1237.13 550.098L1233.59 555.004L1230.25 555.955L1225.96 554.988L1218.54 555.235L1214.65 555.947L1214.01 559.69L1217.96 564.089L1220.39 561.848L1228.7 560.165L1228.32 562.443L1226.39 561.725L1224.43 564.623L1220.48 566.54L1224.56 572.882L1223.7 574.582L1227.5 580.297L1227.32 583.552L1224.88 585.01L1223.22 583.267L1225.53 579.21L1221.09 581.128L1220.04 579.757L1220.69 577.844L1217.57 574.941L1218.03 570.118L1215.02 571.622L1215.23 577.394L1215.13 584.483L1212.28 585.202L1210.43 583.747L1211.89 579.186L1211.36 574.408L1209.49 574.371L1208.19 570.981L1210.1 567.741L1210.79 563.813L1213.06 556.357L1213.99 554.319L1217.75 550.645L1221.24 552.106L1226.86 552.792L1231.98 552.585L1236.34 548.993L1237.13 550.098ZM1252.5 551.52L1252.29 555.842L1249.99 555.358L1249.32 558.367L1251.14 560.978L1249.89 561.572L1248.11 558.439L1246.77 552.117L1247.61 548.165L1249.06 546.364L1249.42 549.066L1252.06 549.5L1252.5 551.52ZM1150.07 586.089L1145.14 586.193L1141.55 582.049L1135.97 578.002L1134.15 575.001L1130.87 570.97L1128.72 567.261L1125.4 560.337L1121.5 556.215L1120.17 551.962L1118.49 548.101L1114.43 544.986L1112.02 540.752L1108.61 537.979L1103.8 532.521L1103.33 529.998L1106.2 530.198L1113.12 531.156L1117.21 536.001L1120.74 539.358L1123.24 541.417L1127.56 546.736L1132.08 546.814L1135.87 550.202L1138.47 554.344L1141.87 556.603L1140.07 560.642L1142.62 562.359L1144.21 562.486L1144.93 565.936L1146.44 568.697L1149.7 569.134L1151.81 572.267L1150.53 578.424L1150.07 586.089ZM1204.31 548.081L1209.35 552.658L1204.08 553.242L1202.61 556.614L1202.79 561.095L1198.47 564.478L1198.28 569.405L1196.37 576.974L1195.77 575.213L1190.64 577.441L1188.97 574.414L1185.8 574.135L1183.62 572.549L1178.29 574.329L1176.72 571.933L1173.8 572.206L1170.14 571.634L1169.57 564.999L1167.37 563.624L1165.26 559.393L1164.64 555.066L1165.13 550.483L1167.73 547.196L1171.02 548.891L1174.45 547.967L1175.27 543.778L1177.15 542.845L1182.46 541.773L1185.55 537.857L1187.63 534.725L1189.32 532.872L1193 530.157L1196.26 526.709L1198.3 522.831L1200.1 522.815L1202.52 525.325L1202.83 527.481L1205.82 528.864L1209.6 530.355L1209.37 532.296L1206.39 532.542L1207.28 534.961L1204.06 536.648L1201.66 541.12L1205.04 545.805L1204.31 548.081ZM1240.71 515.429L1241.39 518.731L1241.84 521.517L1240.59 526.059L1238.67 520.999L1236.74 523.517L1238.36 527.173L1237.2 529.497L1231.83 526.619L1230.38 523.028L1231.59 520.667L1228.62 518.318L1227.36 520.378L1225.26 520.186L1222.14 522.957L1221.31 521.504L1222.79 517.317L1225.49 515.919L1227.78 514.045L1229.51 516.296L1232.79 514.934L1233.35 512.714L1236.47 512.582L1235.9 508.732L1239.69 511.094L1240.26 513.6L1240.71 515.429ZM1040.61 526.441L1036.78 527.576L1034.52 523.632L1033.44 516.492L1035.05 508.414L1038.26 511.181L1040.5 514.685L1042.89 519.86L1042.42 525.029L1040.61 526.441ZM409.177 506.989L405.45 507.538L404.67 507.089L406.017 505.718L406.016 503.748L408.595 503.099L409.518 503.274L409.177 506.989ZM1229.33 506.148L1227.88 507.786L1226.75 510.933L1225.47 512.407L1222.46 508.966L1223.27 507.632L1224.26 506.236L1224.47 503.14L1226.89 502.847L1226.48 506.205L1229.32 501.388L1229.33 506.148ZM1205.42 510.943L1199.86 515.664L1201.79 512.185L1204.76 509.11L1207.14 505.662L1209.02 500.704L1210.18 504.774L1207.48 507.519L1205.42 510.943ZM1219.27 498.095L1222.09 499.643L1224.9 499.635L1225.02 501.722L1223.16 503.841L1220.48 505.339L1220.12 503.021L1220.19 500.474L1219.27 498.095ZM1235.16 496.741L1236.97 502.32L1233.42 500.995L1233.67 502.671L1235.04 505.749L1233.03 506.866L1232.53 503.359L1231.17 503.099L1230.19 500.076L1232.83 500.475L1232.58 498.583L1229.48 494.764L1233.74 494.874L1235.16 496.741ZM1217.08 492.201L1216.36 496.526L1214.21 494.029L1211.53 490.211L1215.34 490.396L1217.08 492.201ZM1212.5 464.801L1215.44 466.25L1216.59 464.929L1217.19 466.218L1216.8 468.32L1218.84 471.949L1218.28 476.147L1215.91 477.819L1215.75 481.88L1217.24 485.885L1219.65 486.439L1221.53 485.844L1227.38 488.628L1227.28 491.358L1228.86 492.562L1228.65 494.869L1224.93 492.411L1223 489.778L1222.07 491.618L1218.91 488.616L1214.98 489.357L1212.66 488.249L1212.63 486.173L1213.86 484.895L1212.4 483.732L1212.05 485.544L1209.51 482.655L1208.58 480.463L1207.77 475.636L1209.77 477.296L1209.11 469.39L1209.84 464.795L1212.5 464.801ZM391.163 466.202L389.93 467.481L386.622 467.451L384.038 467.629L383.968 465.459L384.655 464.717L388.248 464.747L390.455 465.194L391.163 466.202ZM341.266 468.026L339.849 468.873L337.466 468.06L335.134 466.213L335.778 465.053L337.661 464.699L338.644 464.87L341.556 465.325L343.771 466.544L344.366 467.932L341.266 468.026ZM361.256 457.845L364.978 458.645L365.613 457.777L369.033 457.8L371.502 459.112L372.671 458.984L373.294 460.79L375.705 460.688L375.422 462.204L377.359 462.388L379.349 464.252L377.534 466.318L375.541 465.215L373.505 465.427L372.081 465.186L371.206 466.111L369.49 466.424L368.933 465.193L367.413 465.922L365.343 469.393L364.282 468.587L364.19 467.13L361.349 466.268L359.242 466.62L356.594 466.254L354.449 467.201L352.244 465.621L352.789 463.985L356.764 464.69L360.041 465.097L361.729 463.967L359.935 461.765L360.16 459.821L357.473 459.027L358.604 457.62L361.256 457.845ZM1164.13 463.916L1160.68 466.356L1156.85 464.783L1156.09 460.41L1157.91 458.102L1162.48 456.673L1165.02 456.794L1166.3 458.74L1164.71 460.98L1164.13 463.916ZM331.907 443.025L333.404 444.908L337.553 444.327L338.949 445.535L342.266 448.714L344.719 451.024L346.167 450.954L348.658 451.997L348.179 453.437L351.383 453.648L354.469 455.738L353.823 456.933L350.84 457.58L347.863 457.833L344.885 457.43L338.555 457.927L341.805 455.081L340.168 453.754L337.385 453.412L336.043 451.936L335.351 449.02L332.857 449.219L328.95 447.844L327.773 446.768L322.182 445.972L320.788 444.97L322.592 443.686L318.347 443.422L314.858 446.093L313.039 446.165L312.249 447.417L310.014 447.978L308.208 447.492L310.723 445.906L311.917 444.052L314.044 442.908L316.407 441.904L319.775 441.411L320.908 440.845L324.623 441.213L328.04 441.271L331.907 443.025ZM341.919 437.899L340.818 438.156L340.109 435.177L338.685 433.679L340.089 430.387L341.365 430.596L342.295 434.899L341.919 437.899ZM1208 442.894L1206.94 447.109L1203.81 442.77L1202.55 438.949L1204.07 433.871L1206.7 429.945L1209.02 431.491L1208.93 434.618L1208 442.894ZM342.729 423.255L337.887 424.09L337.875 422.158L339.971 421.739L342.802 421.896L342.729 423.255ZM346.284 423.202L344.999 426.909L344.298 426.241L344.767 423.516L343.137 421.451L343.219 420.85L346.284 423.202ZM1250.04 383.045L1251.21 384.899L1249.91 388.163L1247.6 386.434L1245.83 387.687L1245.72 390.834L1242.46 389.303L1241.66 386.749L1242.94 383.526L1245.56 384.152L1246.53 381.877L1250.04 383.045ZM825.249 374.771L822.609 377.093L823.007 378.112L823.178 378.549L819.034 380.755L816.903 380.051L815.732 377.868L817.722 377.668L818.018 377.638L818.514 376.325L821.561 376.398L825.249 374.771ZM779.378 374.589L781.802 376.427L785.066 376.116L788.233 376.503L788.195 377.451L790.452 376.797L790.034 378.403L783.979 378.865L783.963 377.968L778.743 376.906L779.378 374.589ZM744.294 360.699L742.979 365.049L743.679 366.755L742.917 369.581L739.621 367.512L737.464 366.919L731.511 364.117L731.995 361.279L736.905 361.785L741.143 361.182L744.294 360.699ZM717.468 344.043L720.067 348.041L719.704 355.442L717.802 355.09L716.154 356.949L714.54 355.472L714.2 348.725L713.173 345.509L715.453 345.791L717.468 344.043ZM1270.75 366.712L1270.88 371.095L1272.66 373.836L1271.89 377.679L1267.42 380.236L1260.1 380.568L1256.19 386.743L1252.64 384.668L1251.07 380.621L1244.12 381.817L1239.96 384.366L1235.03 384.47L1240.63 388.439L1240.64 397.55L1238.55 399.794L1235.86 397.721L1235.44 392.901L1232.26 391.34L1229.37 387.652L1232.85 385.991L1233.96 382.593L1237.27 379.79L1239.08 376.071L1246.9 374.444L1251.81 375.559L1252.57 365.815L1256.38 368.443L1260.38 362.932L1261.9 360.783L1261.7 353.984L1258.28 347.685L1258.46 344.127L1262.38 343.091L1268.1 350.893L1269.92 355.422L1268.39 361.015L1270.75 366.712ZM718.747 338.706L717.521 343.082L715.616 341.931L714.556 338.115L715.324 336L717.896 333.821L718.747 338.706ZM1265.18 327.143L1268.66 328.37L1270.3 325.929L1274.44 332.379L1269.14 333.944L1268.24 339.599L1259.96 335.711L1260.6 341.926L1256.06 342.011L1252.91 336.367L1252.87 331.972L1257.08 331.654L1254.34 323.691L1253.24 319.17L1261.08 325.204L1265.18 327.143ZM423.527 313.339L426.258 314.125L430.025 313.965L427.491 316.361L425.91 316.742L421.384 314.261L420.852 312.298L422.808 310.486L423.527 313.339ZM434.632 298.217L432.676 298.324L428.025 296.448L425.098 293.612L426.596 293.106L431.387 294.614L434.791 297.119L434.632 298.217ZM188.453 301.766L186.048 302.593L180.865 299.889L180.749 297.769L178.287 295.673L178.467 293.961L174.98 292.878L175.223 289.595L176.321 288.193L179.727 289.513L181.647 290.43L185.004 291.07L185.257 293.149L185.741 296.001L188.445 298.472L188.453 301.766ZM459.308 288.7L455.461 293.977L458.509 291.944L460.855 293.234L458.991 295.33L462.127 296.973L464.277 295.512L467.815 297.355L465.648 301.726L468.645 300.707L468.49 303.862L468.974 307.542L466.245 312.721L464.384 312.939L461.967 311.831L463.832 307.012L462.876 306.261L457.158 311.374L454.807 311.169L458.223 308.403L454.694 306.969L450.323 307.322L442.606 307.141L442.397 305.39L445.363 303.302L444.008 301.687L448.187 298.094L454.551 288.51L457.818 285.055L461.715 282.955L463.459 283.222L462.308 284.875L459.308 288.7ZM171.112 268.106L175.096 267.607L169.677 274.652L170.139 279.6L168.597 279.588L167.908 276.779L168.172 273.939L167.393 272.012L168.355 269.282L169.815 267.295L171.112 268.106ZM1242.62 288.333L1252.93 298.986L1245.92 297.012L1248.36 305.614L1255.57 311.657L1257.65 315.751L1252.72 312.22L1252.48 316.75L1249.14 311.838L1246.47 306.096L1242.42 299.685L1240.74 295.162L1236.12 287.091L1230.16 281.101L1225.18 272.69L1226.87 269.835L1223.44 266.949L1224.55 266.072L1228.29 270.193L1233.5 276.156L1237.23 282.194L1242.62 288.333ZM653.119 279.112L646.104 282.728L640.629 281.804L644.046 275.393L642.307 269.094L647.716 264.203L650.703 261.27L653.896 261.01L657.861 264.891L655.691 269.18L656.201 273.611L653.119 279.112ZM727.477 258.252L725.504 263.353L721.331 259.8L720.662 257.177L726.077 255.076L727.477 258.252ZM107.867 248.667L102.231 251.106L101.605 249.455L103.405 246.449L108.611 244.159L111.38 243.175L113.494 243.612L113.484 245.613L107.867 248.667ZM668.391 238.856L664.303 245.858L668.109 244.976L672.181 245.009L671.152 250.241L667.698 255.949L671.594 256.353L675.212 264.451L677.82 265.456L680.176 272.547L681.279 274.989L685.967 276.164L685.524 280.093L683.553 281.888L685.127 285.043L681.621 288.223L676.377 288.167L669.686 289.831L667.87 288.64L665.234 291.472L661.608 290.787L658.796 293.089L656.731 291.886L662.618 285.526L666.136 284.211L660.033 283.19L658.986 280.758L663.083 278.858L661.029 275.545L661.848 271.494L667.563 272.055L668.178 268.448L665.62 264.513L661.015 263.41L660.148 261.71L661.594 258.894L660.391 257.152L658.276 260.139L658.222 254.036L656.423 250.784L657.98 244.145L661.003 238.889L663.933 239.404L668.391 238.856ZM76.881 230.51L73.7071 231.534L72.4536 230.303L71.9174 228.51L76.5564 227.378L78.8724 227.977L76.881 230.51ZM397.81 215.523L394.76 219.057L393.448 218.487L393.458 216.481L393.846 216.016L396.181 213.991L397.562 214.139L397.81 215.523ZM390.287 211.79L384.299 215.52L381.868 215.364L382.005 213.537L386.208 210.41L391.014 210.474L390.287 211.79ZM80.8008 204.48L81.5627 205.784L84.487 205.08L85.4083 206.886L87.9363 207.798L86.8773 208.541L82.7249 209.982L81.5867 208.501L81.5484 207.264L78.0408 207.66L77.843 207.058L80.8008 204.48ZM389.713 191.484L388.624 194.557L390.972 193.481L391.954 195.308L394.429 197.691L397.244 199.848L395.857 203.126L398.689 202.59L400.026 204.867L395.848 207.022L391.24 205.376L390.888 202.285L385.523 205.938L378.691 209.469L379.596 205.475L374.507 206.133L379.377 202.739L382.811 197.301L387.58 190.913L389.713 191.484ZM630.648 185.865L629.418 190.422L632.826 195.19L627.864 200.477L617.353 205.191L614.2 206.44L609.719 205.432L600.285 203.26L604.129 200.214L597.121 196.828L603.401 195.48L603.551 193.433L596.645 191.807L599.67 187.23L604.94 186.186L609.527 190.96L615.181 187.131L619.186 189.122L625.121 185.364L630.648 185.865ZM426.777 180.948L422.852 181.305L423.914 177.81L427.53 173.784L431.085 172.783L432.558 174.779L430.949 177.854L430.053 178.84L426.777 180.948ZM91.6969 184.957L91.873 186.715L97.2664 181.565L105.056 182.625L103.946 189.239L97.1101 192.295L90.7007 193.019L83.0189 199.809L80.0546 201.246L77.0365 201.039L77.0819 198.63L74.7912 196.607L77.4954 193.586L75.3605 192.443L70.4181 193.35L71.4602 190.901L75.3217 188.29L69.2568 189.96L66.867 193.255L61.4517 196.212L96.863 167.88L97.5958 173.413L97.3257 180.541L91.6969 184.957ZM370.631 166.83L366.801 169.382L364.018 167.178L360.804 167.974L358.831 164.695L363.363 162.422L368.007 159.23L369.806 161.32L370.742 162.643L370.683 164.036L370.631 166.83ZM1243.04 154.124L1240.15 154.504L1236.21 152.135L1235.64 149.012L1243.04 154.124ZM120.617 153.671L115.883 154.124L123.289 149.012L124.147 148.698L126.741 148.713L128.112 150.859L126.382 151.881L120.617 153.671ZM389.039 163.98L384.015 171.425L392.137 165.728L392.929 170.411L388.537 175.763L388.743 180.592L395.376 175.418L401.655 169.182L406.997 161.158L411.161 161.721L415.196 162.802L417.262 166.433L415.282 170.044L410.562 173.899L410.642 177.744L408.236 181.218L398.866 186.178L393.557 187.267L391.308 185.141L388.239 188.683L381.571 194.588L378.848 197.629L372.217 202.304L366.988 202.761L362.599 205.66L359.893 210.095L355.322 210.946L347.953 216.426L339.966 223.963L335.78 229.189L331.625 236.811L336.479 237.899L335.161 243.971L334.576 248.851L340.394 247.583L346.068 250.358L348.737 252.784L350.121 255.788L354.11 257.532L357.015 260.192L363.131 260.556L367.018 261.164L364.271 266.594L363.087 272.844L363.362 279.738L367.124 285.535L370.81 283.554L375.096 277.256L376.608 267.473L375.145 264.183L382.348 261.239L388.31 256.813L392.084 252.385L393.435 248.11L393.089 242.638L390.623 237.752L397.855 230.887L398.879 224.9L402.433 214.437L405.626 212.876L410.857 214.715L414.213 215.372L417.937 213.597L420.243 215.884L422.982 219.779L422.995 222.375L429.202 222.879L426.895 228.455L424.944 236.757L427.925 237.775L429.216 241.602L435.84 237.995L441.927 230.768L445.441 227.699L446.185 233.581L448.161 241.893L449.803 249.617L447.054 253.626L450.986 257.205L453.338 260.813L458.938 262.44L460.833 264.441L460.937 269.723L463.712 270.547L464.659 272.885L463.213 279.807L459.825 282.108L456.499 284.25L449.522 286.412L443.339 291.384L436.439 292.363L428.355 291.093L422.465 291.05L418.277 291.469L413.786 295.784L408.012 298.436L400.12 306.305L394.044 311.745L397.71 310.779L406.209 303.014L415.876 298.049L421.959 297.452L424.707 300.381L419.93 304.374L419.604 310.738L419.843 315.163L424.395 318.078L431.257 317.233L436.789 310.651L436.103 314.904L438.235 317.02L432.398 320.833L422.654 324.28L418.099 326.616L412.616 330.757L409.612 330.336L410.576 325.465L418.731 320.677L412.208 320.868L407.539 321.574L407.784 323.473L402.78 326.271L398.122 328.259L393.408 329.96L390.165 333.706L389.43 334.647L388.677 337.668L389.338 340.677L391.013 340.819L391.055 338.748L392 340.009L391.303 341.628L388.314 342.545L386.36 342.435L383.084 343.421L381.225 343.703L378.762 343.982L374.94 345.616L381.251 344.553L382.23 345.621L376.057 347.31L373.419 347.321L373.702 346.632L372.081 348.19L373.24 348.448L371.427 352.473L367.439 356.766L367.449 355.335L366.6 355.045L365.552 353.651L365.74 356.651L366.504 357.646L366.154 359.74L364.344 361.892L361.039 366.3L360.704 366.081L362.809 362.326L361.14 360.21L361.69 355.594L360.342 357.999L360.448 361.517L357.996 360.689L360.362 362.431L359.409 367.678L360.533 368.059L360.57 369.958L360.04 375.431L356.549 379.471L351.853 381.079L348.44 384.255L346.254 384.602L343.715 386.585L342.755 388.393L337.41 391.883L334.519 394.434L331.908 397.603L330.547 401.388L330.639 405.076L331.281 409.602L332.564 413.335L332.214 415.607L333.292 421.686L332.618 425.208L332.127 427.233L330.58 430.408L329.187 431.063L327.142 430.434L326.794 428.153L325.327 426.956L323.726 422.471L322.361 418.467L322.052 416.415L323.526 412.924L322.823 410.025L320.265 405.6L318.74 404.787L313.968 407.191L313.247 406.927L311.626 404.455L309.188 403.142L304.215 403.809L300.524 403.222L297.184 403.588L295.218 404.329L295.745 405.825L295.26 407.972L295.974 409.016L295.023 409.71L293.576 408.931L291.771 409.933L288.682 409.768L286.02 406.975L282.142 407.635L279.264 406.41L276.519 406.781L272.653 408.017L267.952 411.931L263.222 414.201L260.375 416.71L258.925 419.07L258.198 422.679L257.951 425.185L258.451 426.959L258.456 426.967L258.441 426.978L255.96 431.519L254.561 435.249L253.108 442.164L252.292 444.676L252.619 447.478L253.6 449.978L253.901 453.946L256.284 457.746L256.922 460.651L258.317 463.155L262.813 464.504L264.37 466.627L268.396 465.208L271.809 464.696L275.208 463.782L278.077 462.912L281.123 460.837L282.539 457.865L283.453 453.578L284.408 452.083L287.551 450.743L292.335 449.555L296.183 449.733L298.892 449.3L299.798 450.386L299.331 452.85L296.594 455.887L295.171 458.992L295.873 459.878L294.955 462.078L293.399 466.04L292.433 464.737L291.504 464.821L291.435 465.567L292.265 465.59L292.037 466.97L291.083 469.161L291.383 469.945L290.729 471.755L290.955 472.239L290.181 474.792L289.18 476.132L288.368 476.292L287.32 478.039L288.669 478.951L289.122 478.2L290.353 478.844L290.793 479.04L291.846 478.154L293.115 478.082L293.484 478.493L294.192 478.243L296.197 478.698L298.248 478.566L299.72 478.008L300.291 477.443L301.671 477.705L302.694 478.048L303.859 477.928L304.776 477.492L306.724 478.191L307.414 478.303L308.673 479.244L309.845 480.374L311.381 481.145L312.421 482.529L311.999 483.012L311.678 484.135L311.975 485.974L310.817 487.684L310.182 489.704L309.867 491.913L310.008 493.204L309.954 495.458L309.243 495.949L308.679 498.089L308.893 499.408L307.902 500.686L308.02 502.036L308.648 502.855L309.604 505.566L311.201 507.572L313.165 509.698L314.664 511.485L314.519 512.539L316.278 512.763L316.718 512.358L317.878 513.581L320.079 513.221L322.031 511.965L324.777 510.961L326.369 509.472L328.804 509.765L328.614 510.254L331.079 510.424L333.011 511.285L334.386 512.782L335.992 514.157L338.279 514.315L341.774 510.84L343.627 510.311L343.754 508.663L344.796 504.451L347.468 502.135L350.267 502.04L350.679 501L354.123 501.416L357.755 498.893L359.547 497.776L361.837 495.367L363.387 495.673L364.469 496.989L363.51 498.673L363.316 499.853L360.682 500.436L362.002 502.702L361.81 505.312L359.707 508.207L361.201 512.158L363.129 511.834L364.294 508.235L363.005 506.481L362.978 502.704L368.608 500.675L368.127 498.32L369.771 496.743L371.161 500.255L374.264 500.336L376.996 503.121L377.086 504.772L381.065 504.816L385.827 504.303L388.261 506.536L391.625 507.152L394.184 505.595L394.293 504.339L399.799 504.039L405.116 503.969L401.283 505.442L402.695 507.795L406.227 508.17L409.492 510.62L410.049 514.605L412.367 514.493L414.066 515.666L416.921 517.494L419.57 520.731L419.622 523.287L421.293 523.405L423.613 525.826L425.326 527.553L430.632 528.545L431.13 527.652L434.734 527.293L439.486 528.626L440.985 529.172L444.237 530.345L448.872 534.527L449.577 536.556L451.097 536.322L452.16 539.06L454.573 547.715L456.949 548.531L457.053 551.945L453.695 556.017L455.079 557.508L462.952 558.285L463.124 563.242L466.497 559.997L472.104 561.774L479.512 564.795L481.701 567.694L480.991 570.433L486.157 568.908L494.841 571.525L501.49 571.332L508.107 575.429L513.851 580.977L517.296 582.406L521.103 582.605L522.735 584.169L524.337 590.484L525.126 593.487L523.519 601.705L521.335 604.956L515.264 611.894L512.611 617.543L509.479 621.882L508.376 621.981L507.274 625.67L507.963 635.091L507.083 642.873L506.776 646.211L505.486 648.212L505.065 655.008L501.006 661.67L500.589 666.961L497.199 669.186L496.385 672.27L491.647 672.257L484.934 674.238L482.04 676.533L477.284 678.043L472.507 682.167L469.284 687.321L469.01 691.214L470.001 694.102L469.709 699.401L468.989 701.969L466.282 704.873L462.55 714.206L459.29 718.44L456.695 720.942L455.402 726.053L452.998 729.136L451.624 732.536L447.27 735.553L443.992 734.467L441.788 735.049L437.536 732.719L434.691 732.893L431.668 729.899L431.797 732.725L437.865 737.378L437.864 741.14L440.863 743.525L441.069 746.205L438.196 753.28L432.517 756.255L424.365 757.413L419.685 756.853L421.177 760.175L421.123 764.362L422.435 767.194L420.346 769.175L416.272 769.954L411.883 767.902L410.591 769.376L412.344 774.998L415.482 776.709L417.354 774.917L419.196 777.871L415.8 779.64L413.296 783.197L414.008 788.985L413.769 792.083L409.945 792.099L407.49 795.073L407.418 799.448L412.452 803.742L416.583 804.933L416.559 810.237L412.744 813.59L412.094 820.609L409.174 822.985L408.385 825.816L411.519 832.135L415.173 835.681L413.444 835.37L409.978 835.324L408.58 836.836L405.792 839.061L407.046 844.847L405.469 844.992L400.466 842.972L394.622 838.666L388.637 835.145L386.143 831.269L386.096 827.702L382.842 823.674L379.179 813.45L379.182 807.741L382.107 803.186L375.529 801.474L377.926 796.308L376.747 786.689L381.792 788.717L380.972 776.847L377.852 775.336L378.321 782.455L375.541 781.649L374.825 773.506L373.802 763.071L374.86 759.252L372.485 753.829L370.833 747.607L372.563 747.428L373.386 738.581L374.689 729.897L375.079 721.873L372.764 713.867L373.346 709.484L371.832 702.957L373.418 696.535L372.825 686.43L372.882 675.667L372.959 664.172L371.787 655.809L370.201 648.647L365.531 645.736L364.967 643.658L355.803 638.583L347.444 633.07L343.794 629.968L341.651 625.819L342.272 624.373L338.075 617.8L333.148 608.586L328.451 598.672L326.533 596.406L324.984 592.748L321.407 589.509L318.168 587.5L319.535 585.287L317.242 580.56L318.542 577.091L322.026 573.964L324.334 570.266L323.342 568.105L321.671 570.403L318.975 568.234L319.862 566.84L319.073 562.35L320.628 561.605L321.438 558.523L323.124 555.338L322.819 553.32L325.264 552.259L328.338 550.29L327.747 548.755L329.411 548.383L329.241 545.906L330.309 544.112L332.522 543.781L334.447 540.671L336.199 538.074L334.584 536.895L335.49 534.021L334.61 529.487L335.603 528.186L335.041 523.991L333.34 521.346L331.915 519.913L331.076 517.231L332.232 515.903L331.122 515.563L330.369 513.92L328.224 512.537L326.266 512.853L325.283 514.585L323.431 515.834L322.454 516.007L321.971 517.042L323.974 519.739L322.735 520.374L322.063 521.11L319.985 521.363L319.34 518.396L318.725 519.24L317.273 518.948L316.465 516.949L314.658 516.618L313.533 516.037L311.627 516.044L311.439 517.123L310.964 516.372L308.607 515.269L307.756 514.224L308.311 513.361L308.207 512.261L307.039 511.07L305.346 510.091L303.854 509.453L303.645 507.996L302.534 507.105L302.735 508.554L301.782 509.744L300.846 508.362L299.45 507.87L298.903 506.865L299.021 505.348L299.707 503.776L298.5 503.073L299.579 502.108L298.151 500.535L296.22 498.52L295.366 496.834L293.616 495.262L291.573 493.001L292.125 492.225L292.796 492.979L293.159 492.626L292.52 491.058L291.212 490.622L290.625 491.802L288.069 491.728L286.517 491.248L284.77 490.25L282.339 489.939L281.179 488.862L278.987 487.986L276.238 487.896L274.305 486.9L272.118 484.827L267.651 479.409L265.545 477.772L262.084 476.457L259.583 476.824L255.84 478.721L253.564 479.218L250.591 477.889L247.392 476.93L243.533 474.614L240.312 473.906L235.605 471.556L232.222 469.137L231.283 467.784L228.862 467.481L224.575 465.876L223.057 463.559L218.743 460.673L217.012 457.461L216.341 454.975L217.878 454.476L217.651 453.019L218.864 451.692L219.165 449.922L218.063 447.619L218.005 445.577L216.981 442.982L214.043 437.857L210.416 433.817L208.924 430.584L205.619 428.462L205.078 427.191L206.399 423.97L204.447 422.753L202.437 420.211L202.163 416.553L199.938 416.126L198.064 413.356L196.644 410.793L196.848 409.144L195.507 405.153L195.009 401.085L195.598 399.04L193.059 396.923L191.572 397.156L189.526 395.684L188.264 397.853L188.302 400.411L187.698 404.402L188.624 406.586L190.926 410.227L191.339 411.469L191.905 411.846L192.049 413.655L192.832 413.582L192.92 416.971L193.931 418.306L194.44 420.16L196.58 422.822L197.001 427.671L197.827 429.949L198.55 432.38L198.259 435.112L200.323 435.283L201.626 437.633L202.781 439.938L202.508 440.86L200.335 442.753L199.567 442.728L198.985 439.595L196.684 436.652L194.029 434.151L192.065 432.835L192.973 429.036L192.899 426.217L191.176 424.601L188.705 422.271L187.987 422.944L187.194 421.582L184.809 420.316L182.954 417.273L183.36 416.877L185.069 417.175L187.122 415.213L187.838 412.84L185.43 409.077L183.269 407.614L182.519 404.305L181.83 400.822L180.985 396.56L180.582 391.743L180.645 388.997L178.79 385.898L177 385.253L176.998 383.702L174.701 383.43L173.629 381.966L169.859 381.432L169.05 380.556L169.472 377.576L167.155 372.093L166.249 364.454L166.844 363.175L165.644 361.349L164.097 356.698L165.217 352.15L164.175 349.09L166.903 344.426L168.702 339.573L169.184 335.213L173.056 329.82L178.642 319.332L181.516 311.493L182.648 306.45L182.821 303.7L183.873 302.541L188.65 304.557L188.137 310.132L189.855 308.577L191.521 303.726L192.55 298.844L192.026 298.829L187.354 292.94L185.903 290.335L180.135 287.829L180.915 282.443L183.581 278.684L180.127 276.066L182.375 271.08L180.464 266.56L182.372 263.337L181.763 260.972L179.701 258.96L182.231 253.431L180.867 248.262L183.08 242.178L179.822 241.76L174.055 241.601L171.08 239.733L168.565 232.956L166.032 231.711L161.512 229.359L156.033 229.921L151.361 226.885L149.418 224.056L144.233 225.463L141.16 230.06L138.802 230.481L133.456 231.854L128.418 234.069L123.217 235.459L125.9 231.595L133.032 225.112L138.625 223.064L139.089 221.391L131.286 225.103L125.042 229.509L115.839 234.187L115.885 237.361L108.587 242.027L102.414 244.731L97.1093 246.695L93.9129 249.536L85.4462 252.835L81.9095 255.82L75.3802 258.526L73.1625 258.039L68.2511 259.801L62.7285 261.945L57.934 264.044L50 265.832L50.2202 264.78L56.6812 261.849L61.9246 259.906L68.6955 256.448L73.9453 255.731L77.8756 253.125L86.1417 249.302L88.0132 248.018L92.6096 245.748L97.2848 240.849L102.38 237.007L96.4718 238.981L96.2317 237.861L92.2358 240.226L92.64 236.925L89.6486 239.262L91.0629 236.013L85.1333 238.623L82.8768 238.618L85.9506 234.733L88.7412 232.327L88.4948 229.984L82.6215 231.246L82.3828 228.15L81.3787 226.561L84.9059 222.796L84.8684 219.948L90.0091 216.087L96.6216 212.316L101.368 208.828L104.71 208.331L106.03 209.42L112.153 206.128L114.104 206.717L118.892 204.592L121.423 201.451L120.757 200.209L126.07 197.539L123.873 197.618L118.646 199.126L116.009 200.652L114.868 199.129L109.169 199.904L105.873 198.246L107.442 195.452L107.589 191.394L115.641 188.458L127.032 185.011H129.794L125.42 188.535L132.858 188.262L134.953 183.886L133.899 181.178L135.652 177.609L136.096 174.545L134.329 172.266L140.792 168.465L146.828 168.23L154.969 164.907L160.158 161.334L167.805 157.827L171.949 156.98L182.072 153.68L184.32 154.18L194.144 150.196L196.865 151.768L194.976 155.134L198.13 153.693L202.874 154.14L200.626 155.85L203.945 157.11L208.033 156.369L211.969 158.709L217.275 159.403L218.645 160.362L224.205 159.164L226.589 161.379L228.945 162.407L233.039 164.175L234.468 167.687L237.164 168.357L243.086 165.316L249.307 163.028L253.158 163.924L261.197 160.698L268.249 158.859L267.388 161.914L271.464 160.194L275.644 156.712L277.034 157.502L275.99 164.104L285.01 159.12L280.139 164.697L285.204 163.496L288.419 161.353L291.885 161.777L293.96 164.857L299.126 167.533L302.512 168.768L306.088 168.3L307.384 171.976L299.811 175.553L304.517 177.092L314.101 176.247L317.899 174.99L318.081 179.288L324.462 175.662L323.496 172.606L327.565 170.13L331.788 169.795L334.957 169.069L336.235 170.801L336.542 174.723L340.639 174.149L344.088 177.389L350.029 176.25L354.719 176.423L357.52 171.94L361.326 170.675L364.657 173.128L359.99 179.916L365.982 174.201L368.492 174.394L375.001 167.112L374.78 162.601L373.251 159.626L379.75 151.417L387.667 145.965L390.771 147.174L391.369 150.49L389.499 158.877L384.116 162.496L389.039 163.98ZM338.409 136.829L333.384 140.411L342.328 138.101L342.845 141.951L349.928 138.057L350.329 140.559L346.076 147.996L350.406 144.869L355.418 137.074L359.1 135.95L360.924 137.177L361.479 140.26L356.902 147.639L353.382 152.925L355.625 156.609L358.56 160.11L355.713 163.344L349.996 163.934L349.885 166.743L346.77 169.412L341.771 168.27L337.751 166.303L333.647 166.746L325.59 169.215L314.909 170.488L310.111 170.988L311.223 167.561L308.519 165.573L304.95 166.389L306.144 160.584L308.967 159.798L314.994 158.537L319.163 158.869L324.425 157.583L319.871 155.85L312.61 156.441L308.283 156.292L309.192 153.55L319.23 150.561L314.344 150.666L310.842 148.69L318.992 143.033L324.133 140.006L336.846 135.347L338.409 136.829ZM369.382 134.536L362.148 139.593L362.432 134.228L364.456 133.149L368.704 132.841L369.382 134.536ZM451.316 136.973L450.19 139.087L447.141 138.864L444.013 138.703L440.025 139.729L439.47 139.266L439.007 135.204L441.112 132.43L442.897 131.916L449.057 132.749L451.316 136.973ZM421.082 136.553L419.925 141.314L427.233 135.149L437.07 131.984L436.535 139.925L432.7 144.896L440.196 142.697L445.068 139.673L449.287 143.52L451.258 147.121L449.673 150.399L456.428 148.703L456.907 153.47L462.853 156.407L464.017 159.39L463.516 166.258L455.864 169.649L461.235 174.37L465.714 175.95L467.523 182.516L472.578 182.987L469.43 187.951L460.061 196.08L457.106 193.102L454.756 186.345L449.991 187.229L447.724 191.256L449.509 195.317L452.804 198.511L453.457 200.348L452.953 207.147L449.807 212.038L446.09 210.199L439.574 204.732L442.065 210.614L444.103 214.704L443.758 217.057L435.197 214.366L429.269 210.433L426.467 207.113L428.55 205.183L424.969 201.65L421.519 198.298L420.614 200.304L410.067 201.405L408.321 199.034L413.177 193.918L419.662 193.793L427.132 192.901L427.223 190.401L430.153 186.891L437.975 179.98L438.691 176.815L438.709 174.354L435.582 170.849L430.378 168.381L433.498 166.538L432.742 161.985L430.179 161.567L429.19 159.058L426.16 161.233L419.794 162.179L409.242 160.535L403.972 158.37L399.612 157.254L398.826 154.646L404.511 151.243L400.12 151.21L404.791 143.585L412.335 136.768L417.839 133.628L427.045 131.575L421.082 136.553ZM384.589 131.265L386.656 132.892L392.771 131.914L391.61 134.151L385.694 137.832L387.512 141.117L381.47 147.928L374.092 150.834L371.605 150.208L371.803 147.339L369.157 141.498L371.349 139.059L376.673 140.006L377.754 134.998L384.589 131.265ZM1107.58 136.131L1103.13 136.185L1095.97 135.329L1094.95 134.922L1093.97 131.875L1096.75 131.159L1104.68 134.111L1107.58 136.131ZM398.908 139.502L391.162 145.178L387.897 144.896L391.427 138.216L394.663 134.402L398.994 131.122L403.706 129.009L409.56 129.28L413.602 131.166L403.671 138.018L398.908 139.502ZM306.408 149.881L294.568 153.606L296.171 150.331L293.108 146.356L296.713 143.892L305.804 137.587L313.894 132.532L316.353 127.781L327.531 126.564L329.891 128.181L336.863 128.613L337.329 130.861L337.142 134.111L331.431 136.051L318.616 141.422L309.522 146.723L306.408 149.881ZM1108.95 121.589L1110 124.689L1104.43 123.989L1094.84 120.889L1091.95 118.333L1098.9 119.526L1108.95 121.589ZM412.006 122.407L407.788 125.445L404.114 124.862L402.467 122.819L407.221 119.274L413.23 117.142L413.178 119.916L412.006 122.407ZM1087.64 117.812L1093.43 123.663L1082.57 123.446L1080.21 125.295L1067.94 120.19L1062.23 114.744L1063.85 113.249L1071.65 113.599L1087.64 117.812ZM411.36 108.576L409.786 112.292L405.944 116.379L399.159 122.25L393.697 123.055L391.81 121.799L396.305 117.194L391.1 117.803L397.113 111.652L399.821 111.902L406.72 109.169L410.094 109.633L411.36 108.576ZM380.408 112.731L378.479 115.568L382.361 114.237L384.912 114.583L381.411 118.47L375.918 122.209L364.995 123.428L354.246 126.814L349.655 126.991L351.96 124.444L361.574 120.972L347.698 121.909L345.276 120.502L357.903 112.752L363.086 110.513L367.768 113.213L367.592 117.919L371.879 118.52L376.104 110.906L381.865 107.98L383.639 108.912L380.408 112.731ZM859.987 154.955L858.427 155.607L847.748 154.641L845.502 151.329L839.035 149.32L836.861 145.252L839.278 143.628L837.331 139.481L840.197 132.937L837.033 131.993L840.62 125.17L837.99 121.61L842.061 117.442L848.271 112.33L856.49 110.832L859.193 107.854L863.744 106.807L867.852 109.984L867.716 112.475L860.442 116.424L854.125 120.197L849.377 127.654L848.894 135.205L847.733 142.552L851.245 148.825L859.987 154.955ZM424.709 105.529L425.2 108.123L430.566 108.106L430.485 110.747L427.141 113.75L428.735 115.55L428.875 117.436L432.369 117.784L435.922 118.447L441.81 116.73L448.06 116.055L452.163 116.613L452.864 119.597L451.039 122.854L447.692 124.937L442.129 126.615L439.149 125.666L429.915 126.868L423.853 127.006L419.964 126.044L414.441 123.524L417.237 119.203L420.424 115.273L420.855 111.791L416.097 110.813L415.359 108.326L419.679 105.015L424.709 105.529ZM372.246 101.086L364.314 107.313L358.906 110.102L355.883 110.494L346.702 113.915L340.804 115.135L339.112 113.41L351.128 107.413L363.195 102.169L367.127 102.282L372.246 101.086ZM968.379 106.527L973.447 110.503L973.815 108.55L981.891 108.656L992.483 112.566L998.057 115.551L1001.89 119.668L1001.25 121.999L998.206 126.348L998.34 128.657L1003.04 129.745L1009.34 131.699L1010.5 130.235L1016.99 135.189L1016.29 133.188L1019.76 131.968L1030.55 133.244L1035.03 136.839L1048.73 137.979L1042.55 132.106L1050.31 133.457L1054.98 133.415L1064.31 137.463L1071.08 142.344L1072.69 145.514L1082.81 151.43L1090.88 154.459L1085.49 146.6L1094.12 149.982L1097.17 147.963L1105.72 150.273L1105.63 148.168L1111.88 149.221L1101.56 142.21L1101.61 138.91L1135.02 143.85L1143.19 148.33L1158.32 154.049L1169.19 152.638L1176.96 153.867L1183.44 156.939L1189.72 162.334L1196.21 164.422L1198.66 162.921L1204.09 162.729L1211.94 164.167L1216.99 163.357L1230.79 169.84L1231.88 167.515L1223.29 162.842L1220.44 159.573L1233.31 161.633L1239.36 161.193L1253.28 164.695L1262.06 167.879L1297.48 196.213L1297.49 196.25L1296.59 199.296L1291.54 198.789L1298.81 202.463L1307.17 208.108L1310.8 209.943L1314.26 212.75L1315.27 214.542L1307.09 213.07L1302.46 218.143L1300.08 218.926L1299.28 223.621L1298 227.695L1299.51 230.695L1289.99 226.124L1285.39 231.308L1281.47 228.86L1280.56 231.683L1274.87 230.782L1277.56 235.098L1278.62 241.4L1280.97 244.014L1286.42 245.458L1293.61 254.771L1290.31 255.006L1292.88 260.299L1296.56 263.006L1292.34 266.206L1296.26 273.305L1291.6 274.812L1294.84 281.057L1293.08 286.735L1288.81 282.54L1280.92 273.576L1268.65 259.698L1263.69 250.894L1263.8 247.07L1261.55 244.059L1266.12 242.614L1265.73 234.419L1265.97 227.65L1267.56 222.349L1261.28 212.874L1257.54 213.446L1260.76 218.994L1258.43 226.317L1247.94 218.111L1240.81 220.388L1241.55 231.508L1247.97 235.53L1241.19 237.235L1236.05 237.907L1232.44 233.178L1225.95 232.183L1224.04 235.403L1211.94 234.277L1201.39 236.216L1198.71 248.845L1194.33 263.795L1200.84 264.584L1205.24 268.496L1209.85 269.879L1210.29 266.767L1214.75 267.172L1224.72 274.003L1228.17 279.242L1228.87 285.346L1232.83 292.574L1236.49 302.142L1235.09 310.699L1235.85 314.757L1233.78 321.54L1231.51 328.208L1230.45 331.599L1226.52 334.954L1223.97 335.028L1220.16 332.251L1216.51 336.43L1216.69 338.322L1214.98 337.981L1214.02 339.905L1213.6 341.832L1215.44 345.887L1213.8 347.131L1213.47 348.123L1212.57 349.782L1210.18 350.703L1208.96 352.207L1209.76 354.625L1209.51 355.24L1211.52 356.146L1214.8 358.585L1220.83 365.112L1223.16 368.679L1225.42 374.987L1224.85 377.981L1221.37 379.025L1218.73 381.277L1215.07 381.741L1213.63 378.785L1213.05 374.7L1209.24 369.002L1212.03 368.077L1207.48 363.362L1205.06 362.309L1204.93 363.349L1203.87 363.807L1203.35 362.767L1202.09 362.261L1200.65 361.379L1200.9 358.939L1201.65 358.287L1200.9 357.271L1200.83 354.268L1200.21 353.354L1197.56 352.747L1195.03 351.246L1189.84 352.872L1187.74 355.48L1183.81 357L1185.08 354.418L1183.41 352.243L1185.29 348.477L1181.97 345.529L1179.13 347.516L1175.9 351.417L1174.64 355.024L1170.66 355.292L1169.44 357.888L1172.93 361.638L1176.66 362.546L1177.64 365.024L1181.5 366.633L1184.85 362.694L1189.31 364.844L1192.07 364.991L1193.74 367.875L1188.31 369.41L1187.33 372.367L1184.11 375.108L1183.15 378.92L1188.62 381.901L1191.89 387.218L1195.93 392.145L1200.01 396.258L1201.05 400.221L1198.76 401.674L1200.55 404.507L1203.51 406.152L1203.97 410.457L1203.93 414.632L1201.64 415.105L1199.85 420.781L1197.9 427.629L1195.2 433.824L1190.18 438.597L1184.95 442.935L1180.15 443.526L1177.9 445.809L1176.09 444.142L1174.07 446.694L1168.41 449.264L1163.92 450.049L1163.3 455.449L1160.92 455.749L1159.18 452.04L1159.89 450.06L1153.76 448.419L1151.83 449.254L1146.69 453.632L1143.77 458.454L1143.31 461.985L1147.41 467.338L1152.38 473.95L1156.77 477.069L1159.93 481.116L1162.96 490.414L1163.2 499.22L1159.78 502.509L1154.96 505.721L1151.65 509.875L1146.42 514.509L1144.6 511.318L1145.62 507.944L1142.12 505.111L1138.35 504.383L1136.34 501.783L1133.68 496.62L1129.5 494.323L1125.72 494.417L1126.01 490.481L1122.12 490.51L1122.26 496.018L1120.45 503.316L1119.33 507.722L1119.87 511.326L1122.77 511.483L1124.84 516.023L1125.88 520.324L1128.5 523.168L1131.22 523.744L1133.64 526.32L1134.68 526.783L1137.43 529.777L1139.42 533.094L1139.78 536.43L1139.37 538.683L1139.85 540.385L1140.23 543.314L1141.83 544.677L1143.64 549.052L1143.58 550.725L1140.42 551.055L1136.17 547.391L1130.84 543.463L1130.26 540.942L1127.61 537.631L1126.87 533.529L1125.17 530.828L1125.52 527.217L1124.45 525.115L1122.6 523.21L1121.72 520.752L1119.22 517.947L1116.93 515.59L1116.36 518.512L1115.37 515.75L1115.67 512.647L1116.67 507.871L1115.99 504.171L1117.06 500.347L1115.33 497.389L1115.23 491.935L1113.19 489.338L1111.17 483.327L1109.71 476.963L1107.33 472.782L1104.71 475.315L1100.09 478.911L1097.57 478.462L1094.71 477.279L1095.55 471.019L1094.07 466.276L1089.9 460.417L1090.2 458.581L1087.55 457.928L1083.89 453.765L1082.28 451.098L1081.66 448.489L1080.48 446.019L1078.22 443.026L1074.17 442.82L1074.88 444.941L1073.91 447.797L1071.9 446.758L1071.4 447.692L1070.08 447.131L1068.33 446.672L1067.96 448.545L1064.98 448.48L1059.73 449.546L1060.48 453.395L1058.52 456.416L1052.63 459.846L1048.38 465.826L1045.41 469.024L1041.36 472.337L1041.58 474.662L1039.5 475.906L1035.69 477.713L1033.65 477.979L1032.66 481.822L1034.11 488.358L1034.66 492.518L1033.11 497.273L1033.62 505.757L1031.34 505.998L1029.52 509.799L1030.96 511.439L1026.98 512.85L1025.64 516.233L1023.92 517.662L1019.51 513.019L1017.1 506.044L1015.11 501.011L1013.42 498.648L1010.76 493.842L1009.23 487.571L1008.23 484.433L1003.67 477.518L1001 467.72L999.067 461.222L998.456 455.049L997.095 450.26L991.054 453.322L987.905 452.71L981.535 446.5L983.431 444.644L981.917 442.624L976.308 438.248L972.968 436.942L971.237 433.222L967.41 429.27L959.532 430.248L952.491 430.344L946.459 431.072L938.123 429.505L933.265 428.309L928.299 427.634L925.761 421.237L923.589 420.31L920.37 421.244L916.275 423.773L910.809 422.04L906.03 418.017L901.719 416.523L898.318 411.531L894.385 404.48L892.17 405.34L889.254 403.582L887.875 405.652L885.301 405.392L886.44 407.729L886.18 408.936L887.969 412.914L890.105 417.447L892.346 418.644L893.265 420.484L896.424 422.682L896.891 424.835L896.622 426.571L897.333 428.32L898.714 429.776L899.448 431.479L900.211 432.75L899.579 428.973L900.492 426.243L901.621 425.682L903.089 427.315L903.452 430.359L902.789 433.41L903.792 435.388L904.543 435.136L904.831 436.555L908.162 435.74L911.772 435.875L914.414 436.027L917.06 432.527L919.969 429.198L922.378 425.991L923.451 424.216L924.035 424.668L923.854 426.821L923.387 427.765L924.395 431.869L926.695 435.407L929.308 437.284L932.567 437.96L935.239 438.901L937.493 441.856L938.833 443.566L940.457 444.217L940.558 445.364L939.253 448.423L938.684 449.861L936.986 451.499L935.654 455L933.644 454.733L932.835 455.95L932.341 458.535L933.148 461.938L932.783 462.563L930.76 462.545L928.159 464.445L927.911 466.917L926.981 467.987L924.243 467.945L922.609 469.222L922.768 471.267L920.73 472.671L918.27 472.193L915.433 473.899L913.416 474.185L910.312 475.541L909.59 477.781L909.586 479.5L905.31 481.626L898.379 483.974L894.597 487.518L892.664 487.795L891.324 487.497L888.836 489.58L886.06 490.546L882.359 490.806L881.254 491.091L880.341 492.414L879.196 492.78L878.563 494.053L876.368 493.943L874.98 494.623L871.908 494.368L870.643 491.442L870.659 488.7L869.875 487.22L868.849 483.503L867.489 481.435L868.361 481.189L867.802 478.889L868.291 477.916L867.99 475.716L867.312 473.56L865.907 472.037L865.464 470.02L863.099 468.204L860.53 463.95L859.063 459.806L855.832 456.299L853.83 455.461L850.649 450.589L849.93 447.026L849.928 443.98L847.065 438.267L844.893 436.251L842.473 435.181L840.85 432.212L841.009 431.04L839.623 428.346L838.278 427.184L836.321 423.306L833.395 419.089L830.939 415.484L828.793 415.511L829.258 412.622L829.315 410.777L829.692 408.669L829.491 407.905L828.441 410.028L827.801 414.009L826.818 416.746L825.875 417.662L824.322 415.967L822.217 413.621L818.624 406.054L818.217 406.533L820.383 412.107L823.385 417.393L827.185 425.538L828.965 428.368L830.543 431.303L834.797 437.036L833.986 437.936L834.326 441.289L839.674 445.906L840.502 446.958L842.195 451.986L841.286 452.913L842.201 458.168L844.118 464.243L845.852 465.492L848.349 467.367L851.181 473.227L852.602 477.861L855.125 480.315L861.352 485.067L863.924 487.93L866.435 490.825L867.885 492.547L870.118 494.053L871.223 495.603L871.16 497.68L868.675 498.875L870.625 500.243L872.098 501.164L873.035 503.227L875.103 505.316L877.305 505.333L881.442 504.057L886.248 503.466L890.094 501.915L892.281 501.586L893.829 500.675L896.345 500.499L897.757 500.401L899.77 499.659L902.098 499.155L904.123 497.445L905.802 497.431L905.96 498.813L905.668 501.719L905.786 504.342L904.917 506.143L903.85 511.528L901.878 517.084L899.292 523.427L895.625 530.696L891.915 536.243L886.758 542.996L882.333 547.001L875.696 551.913L871.553 555.675L866.674 561.667L865.638 564.274L864.627 565.446L861.498 567.421L860.385 569.486L858.715 569.848L858.055 573.335L856.606 575.332L855.702 578.627L853.89 580.263L851.749 586.37L851.966 589.181L854.781 590.989L854.89 592.28L853.606 595.279L853.829 596.789L853.485 599.164L854.961 602.282L856.668 607.194L858.265 608.284L858.917 610.52L858.578 615.495L858.975 619.884L858.85 627.72L859.526 630.182L858.057 633.778L856.191 637.278L853.243 640.409L849.128 642.33L844.054 644.786L838.833 650.229L837.099 651.157L833.862 654.772L831.998 655.95L831.448 659.587L833.324 663.46L834.026 666.466L833.996 668.001L834.782 667.744L834.369 672.788L833.523 675.183L834.496 676.067L833.718 678.217L831.788 680.058L828.097 681.809L822.707 684.618L820.689 686.541L820.927 688.735L822.013 689.086L821.469 691.833L820.147 695.643L819.352 700.005L818.079 702.382L814.965 705.047L814.074 705.811L812.072 708.499L810.693 711.224L808.004 715.037L802.8 720.55L799.574 723.768L796.196 726.216L791.617 728.308L789.435 728.589L788.79 730.089L786.263 729.29L784.1 730.319L779.566 729.278L776.958 729.936L775.218 729.654L770.727 731.789L767.064 732.647L764.342 734.697L762.413 734.828L760.719 732.893L759.293 732.794L757.583 730.377L757.348 731.127L756.851 729.673L757.018 726.509L755.795 722.905L757.212 721.928L757.276 717.819L754.68 712.83L752.699 708.333L752.693 708.319L749.85 701.456L746.776 697.484L745.203 693.657L744.394 688.572L743.429 684.802L742.177 676.824L742.226 670.657L741.731 667.853L740.078 665.738L737.906 661.508L735.718 655.385L734.816 652.189L731.319 647.233L731.109 643.346L730.739 640.167L731.408 635.73L732.99 631.12L733.246 628.962L734.734 624.437L735.812 622.382L738.392 619.106L739.838 616.879L740.344 613.177L740.142 610.349L738.833 608.566L737.68 605.542L736.615 602.554L736.861 601.52L738.242 599.547L736.929 594.745L736.04 591.422L733.831 588.282L734.259 587.318L733.643 585.78L732.472 582.052L728.835 576.806L724.275 571.81L721.339 567.727L718.641 562.617L718.784 560.973L719.757 559.392L720.839 555.792L721.735 552.125L720.901 551.379L722.424 545.824L723.067 541.916L721.32 538.644L719.287 537.804L718.377 535.585L717.236 534.875L717.284 533.505L712.668 535.289L710.98 535.028L709.271 536.137L705.711 536.03L703.323 532.931L701.852 529.344L698.697 526.076L695.356 526.138L691.432 526.135L687.758 526.714L684.178 527.772L677.206 530.674L674.732 532.374L670.722 533.811L666.757 532.403L664.733 532.454L661.63 531.485L658.778 531.542L653.507 532.407L650.415 533.837L646.005 535.654L645.146 535.524L643.98 535.567L639.4 533.206L635.371 529.434L631.593 526.721L628.615 523.52L627.419 523.152L624.231 521.152L621.934 518.491L621.17 516.676L620.654 513L618.732 510.054L617.026 508.104L615.896 507.459L614.798 506.469L614.318 504.265L613.682 503.165L612.402 502.348L610.061 500.261L608.2 499.93L607.202 498.522L607.238 497.761L605.902 496.7L605.635 495.629L604.966 491.79L605.566 489.566L603.808 485.659L601.636 483.868L603.595 482.914L605.797 479.379L606.892 476.79L606.562 474.07L607.839 471.576L608.481 466.808L608.101 461.79L607.628 459.26L608.124 456.718L607.048 454.292L604.795 452.083L605.038 449.921L605.306 447.545L607.02 446.146L608.519 443.468L608.283 441.725L609.879 438.086L612.389 434.8L613.875 433.965L615.105 430.941L615.282 428.173L616.934 424.953L619.868 423.051L622.748 417.707L625.05 415.616L629.074 415.036L632.552 411.438L634.74 410.032L638.42 405.616L637.493 399.004L639.218 394.408L639.853 391.585L642.669 387.953L646.979 385.489L650.166 383.255L653.088 377.636L654.469 374.288L657.571 374.314L660.084 376.63L664.102 376.253L668.464 377.456L670.299 377.513L674.368 374.535L678.927 373.586L681.583 371.328L685.628 369.66L692.742 368.682L699.682 368.235L701.812 369.052L705.731 366.885L710.212 366.842L711.945 368.122L714.809 367.788L719.321 365.567L722.273 366.228L722.229 369.01L725.73 366.987L726.061 368.043L724.041 370.732L724.085 373.264L725.583 374.621L725.163 379.335L722.451 382.062L723.333 385.01L725.53 385.103L726.668 387.667L728.308 388.508L733.358 390.36L735.131 389.897L738.716 390.794L744.452 393.192L746.623 397.945L750.499 398.98L756.617 401.21L761.291 403.851L763.321 402.473L765.264 400.026L764.081 395.939L765.297 393.336L768.243 390.822L771.136 390.089L776.953 391.189L778.538 393.586L780.127 393.609L781.536 394.523L785.811 395.15L786.955 396.915L792.632 396.827L796.833 398.239L801.178 399.813L803.214 400.643L806.395 398.955L808.05 397.426L811.786 396.986L814.874 397.66L816.23 400.304L817.096 398.564L820.617 399.823L823.975 400.124L825.975 398.782L827.08 397.024L826.764 396.721L827.69 394.222L828.217 390.174L828.71 388.812L828.822 388.757L829.95 384.363L831.71 380.548L831.772 380.359L830.987 376.197L831.804 373.953L830.014 371.472L831.403 369.413L828.887 369.88L825.249 368.618L822.657 371.773L816.325 372.389L812.661 369.448L808.116 369.263L807.337 371.538L804.482 372.188L800.181 369.269L795.602 369.368L792.698 363.893L789.407 360.826L791.099 356.508L788.251 353.845L792.414 348.49L798.77 348.265L800.114 343.986L808.052 344.733L812.635 341.066L817.257 339.463L824.045 339.343L831.698 343.334L837.88 345.516L842.584 344.647L846.202 345.15L850.687 342.202L850.974 339.781L849.417 335.903L846.759 333.8L844.402 333.142L842.665 331.388L836.809 326.532L831.879 324.355L827.927 320.952L830.748 320.024L833.421 315.149L830.843 312.831L836.412 310.435L836.114 309.146L832.658 310.096L829.524 310.566L827.121 312.467L823.402 312.777L820.226 314.959L820.929 318.589L823.087 319.992L827.166 319.643L826.648 321.715L822.34 322.718L817.237 326.063L814.838 324.889L815.409 322.169L810.783 320.472L811.366 319.357L814.998 317.421L813.667 316.085L807.227 314.607L806.692 312.423L803.054 313.145L801.926 316.367L799.269 320.67L799.522 322.166L797.687 323.412L796.399 322.87L795.96 329.826L794.071 332.201L792.958 336.286L794.581 339.529L795.268 341.709L799.034 343.535L798.411 344.918L793.534 345.228L791.922 346.969L788.719 349.994L787.203 347.38L787.164 346.218L784.633 346.058L782.435 345.526L777.541 346.989L780.648 350.145L778.609 351.058L776.299 351.064L773.901 348.176L773.21 349.408L774.37 352.752L776.632 355.371L775.147 356.591L777.645 359.152L779.823 360.76L780.102 363.884L776.133 362.42L777.554 365.236L774.931 365.814L776.832 370.665L774.043 370.732L770.452 368.345L768.614 363.94L767.658 360.26L765.874 357.708L763.547 354.533L763.169 352.943L762.439 352.552L762.281 351.321L759.87 349.44L759.348 346.763L759.461 342.916L759.912 341.158L759.164 340.265L758.275 339.826L757.007 337.973L755.164 336.843L751.183 334.734L748.691 332.677L744.858 330.974L741.202 326.744L742 326.314L740.018 323.885L739.838 321.93L737.187 321.015L736.071 323.517L734.779 321.577L734.77 319.561L734.909 319.467L735.782 318.939L732.525 318.091L729.335 320.156L729.687 323.035L729.262 324.683L730.723 327.618L734.676 330.513L736.953 335.242L741.742 339.826L744.963 339.791L746.031 341.044L744.934 342.172L748.735 344.214L751.859 345.92L755.571 348.852L756.06 349.9L755.398 351.905L752.952 349.289L749.304 348.365L747.745 351.991L750.853 354.062L750.509 356.97L748.784 357.299L746.782 362.056L745.058 362.482L744.998 360.79L745.712 357.815L746.561 356.627L744.783 353.396L743.382 350.576L741.628 349.876L740.293 347.453L737.59 346.43L735.704 344.165L732.635 343.799L729.312 341.247L725.41 337.552L722.504 334.269L721.029 328.605L718.979 327.936L715.607 326.035L713.759 326.813L711.48 329.483L709.796 329.904L706.172 333.141L698.08 331.591L692.15 333.448L691.716 336.883L691.968 340.184L688.095 343.952L682.811 345.144L682.447 347.039L679.906 350.151L678.304 354.702L679.928 357.884L677.513 360.359L676.603 363.955L673.438 365.054L670.445 369.285L665.112 369.368L661.108 369.263L658.451 371.2L656.814 373.268L654.76 372.814L653.232 370.965L652.096 367.808L648.196 366.955L646.479 368.383L644.283 367.61L642.102 368.215L642.85 363.904L642.543 360.504L640.688 359.993L639.749 357.889L640.183 354.244L641.896 352.217L642.253 349.953L643.21 346.575L643.185 344.188L642.418 342.158L642.293 340.248L642.62 336.201L641.023 333.726L646.925 329.591L651.891 330.627L657.373 330.591L661.702 331.569L665.097 331.269L671.697 331.458L673.826 328.014L674.651 316.469L670.541 310.318L667.619 307.336L661.549 305.06L661.226 300.729L666.392 299.432L673.042 300.965L671.837 294.193L675.55 296.767L684.733 292.081L685.881 287.126L689.291 285.9L692.409 284.699L694.393 283.026L697.618 273.989L702.824 271.398L706.025 271.573L706.733 270.259L709.931 269.921L710.694 271.29L713.18 268.225L712.21 265.886L711.892 262.331L710.21 258.835L709.837 252.348L710.391 250.624L711.382 248.704L714.654 248.306L715.877 246.535L718.773 244.717L718.827 248.025L717.831 250.113L718.374 251.901L720.461 252.867L719.67 255.266L718.512 254.575L716.017 259.136L717.193 262.204L717.376 264.628L721.305 266.086L721.378 268.301L725.208 267.13L727.258 265.418L731.727 267.885L733.665 269.867L736.162 268.039L741.918 265.15L746.547 263.029L750.44 264.089L750.863 265.617L754.553 265.696L755.163 262.939L760.207 260.899L758.854 255.585L758.48 250.792L759.879 246.766L763.135 244.567L766.659 249.369L769.644 249.244L769.746 244.308L769.687 240.491L768.433 241.308L765.8 239.002L765.01 235.254L769.4 233.429L773.871 232.476L777.991 233.56L781.733 233.366L785.304 229.731L781.002 226.588L774.515 227.115L768.481 229.538L762.745 230.928L760.19 227.327L756.42 225.149L756.406 218.573L753.911 212.49L755.079 208.532L757.666 204.237L764.46 196.75L766.514 195.295L765.668 192.344L760.401 189.031L754.871 191.018L752.254 195.889L753.373 200.134L748.56 205.664L742.455 211.527L740.845 221.011L743.877 225.704L747.718 229.376L745.106 236.779L741.423 238.304L740.949 249.146L739.302 255.121L734.686 254.507L732.902 259.529L728.532 259.819L726.957 253.831L723.375 246.573L720.01 237.417L717.319 233.403L710.441 240.946L705.571 242.464L700.349 239.162L698.829 232.133L697.239 216.787L700.365 212.442L709.401 206.729L715.841 199.634L721.383 189.924L728.136 176.214L733.013 170.787L740.653 161.633L747.119 158.404L752.396 158.798L756.03 152.645L761.787 152.975L767.056 151.487L778.138 156.934L774.54 158.914L779.114 163.537L781.793 160.982L788.162 165.415L797.45 167.153L812.069 175.339L815.588 178.746L817.166 183.487L814.465 187.204L809.441 189.083L793.087 183.714L790.833 184.616L797.522 189.781L800.32 200.129L805.256 202.232L808.385 204.017L808.053 200.68L805.171 197.597L806.829 195.074L816.215 199.394L818.686 197.706L815.046 192.607L821.048 185.721L824.272 186.128L828.149 188.593L828.648 183.738L824.566 179.495L824.848 175.21L821.02 170.731L830.914 173.051L834.137 177.081L830.24 177.965L831.531 181.936L834.935 184.366L839.61 182.828L838.898 178.28L844.595 174.863L853.637 168.652L856.226 169.009L854.744 173.403L859.106 174.154L860.467 171.688L866.503 171.489L870.049 168.481L875.659 172.846L877.228 168.047L871.932 163.816L872.481 161.393L882.974 163.615L888.527 165.902L904.376 174.189L904.669 170.407L899.421 166.563L898.535 165.013L894.297 164.295L893.572 160.814L888.865 155.041L887.504 152.656L889.466 145.859L887.446 138.956L888.775 137.452L897.959 139.469L901.196 143.699L901.932 149.812L905.254 152.199L909.255 157.399L914.107 167.463L920.086 171.911L921.218 176.718L919.757 186.824L924.119 187.863L924.206 185.322L926.982 183.503L926.056 179.982L927.127 176.574L923.012 172.481L921.902 167.693L918.035 167.094L915.005 163.027L913.288 155.614L905.642 149.528L908.045 144.447L903.922 139.042L905.309 138.867L909.603 143.089L912.922 150.363L917.084 151.731L912.312 146.315L915.524 143.341L921.571 142.94L930.11 147.249L923.124 140.943L917.111 132.776L921.101 131.217L928.426 131.559L934.01 130.545L928.452 126.48L927.623 121.334L930.714 121.118L932.861 117.199L939.321 116.142L938.264 113.962L944.852 113.223L948.82 115.012L950.91 110.769L956.086 110.902L953.29 107.434L952.248 103.994L954.882 100.657L962.37 103.293L960.921 105.289L968.379 106.527ZM882.048 343.634L884.773 347.632L886.742 347.893L888.253 349.408L884.91 349.859L884.844 354.203L884.417 356.155L883.078 357.456L883.584 360.205L885.482 364.283L889.616 365.431L892.919 368.192L899.026 369.14L905.37 367.686L905.578 366.399L904.201 362.497L903.896 356.696L900.349 354.81L900.798 350.985L897.991 350.657L898.128 345.923L902.259 347.304L905.583 345.503L901.989 342.114L900.242 338.872L897.184 340.32L897.468 344.463L895.562 340.8L895.094 339.417L895.694 337.049L894.565 335.064L889.48 333.117L886.736 327.966L884.231 326.509L883.763 324.629L887.813 325.177L887.195 320.944L890.46 320.001L894.159 320.869L893.782 315.185L892.345 311.561L888.385 311.845L884.694 310.411L880.54 312.993L877.016 314.221L875.805 317.686L872.059 318.646L869.047 324.632L873.645 330.097L873.866 333.954L879.412 340.655L882.048 343.634ZM430.344 102.106L428.902 102.339L424.45 101.82L426.09 99.5409L431.259 99.6604L431.586 101.175L430.344 102.106ZM388.635 100.664L380.933 103.006L380.149 100.377L385.453 97.7701L390.275 96.9344L392.404 98.2184L388.635 100.664ZM744.381 99.3839L739.314 102.716L734.204 100.827L735.542 98.72L733.365 96.0994L738.316 94.4508L740.127 97.5366L744.381 99.3839ZM398.921 93.2377L393.818 94.8465L389.55 94.8384L391.064 93.6623L396.801 91.1857L397.686 91.5631L398.921 93.2377ZM429.567 97.7218L423.931 99.4104L423.812 97.5094L426.039 94.4248L429.626 91.0038L432.54 91.3349L433.419 91.883L433.389 94.7526L429.567 97.7218ZM420.947 95.5228L418.231 98.9449L414.951 98.0328L413.654 95.3708L408.261 95.0654L413.599 92.6143L412.895 90.6189L416.583 87.4304L420.112 88.5659L423.394 91.5961L420.947 95.5228ZM951.108 95.6698L939.968 98.8349L932.473 87.9941L933.411 87.0564L935.932 87.5997L947.94 92.3172L951.108 95.6698ZM724.227 84.0823L733.863 90.3054L728.209 93.5628L728.009 99.6058L725.993 101.145L725.932 107.857L722.711 108.171L716.164 103.24L718.133 100.349L713.846 97.9841L707.893 91.0256L705.13 84.4963L711.354 81.486L713.165 84.4292L716.643 84.3125L717.04 81.4386L720.534 81.1453L724.227 84.0823ZM740.033 78.1308L745.697 81.0986L743.518 85.6235L736.618 86.6087L728.968 85.2134L727.981 82.9012L724.449 82.7539L720.963 78.8802L727.737 76.5107L731.722 78.5517L733.406 76.009L740.033 78.1308ZM800.417 76.9431L797.937 78.0623L796.187 78.7052L796.688 80.0934L794.686 81.4883L790.926 79.4866L790.744 76.8399L785.337 76.5817L789.029 75.0314L792.523 74.9283L794.404 77.221L794.505 75.1843L795.814 73.7773L800.49 75.6465L800.417 76.9431ZM932.529 90.9291L928.148 91.9626L918.476 89.5692L910.857 86.3874L902.278 80.361L897.119 78.6891L896.421 72.8734L899.008 70.9381L908.892 75.244L924.387 83.4242L932.529 90.9291ZM465.682 84.4325L465.914 87.1357L459.998 89.6144L449.128 95.8314L443.962 96.4223L439.663 95.37L440.417 92.0057L443.68 88.9955L448.063 86.775L443.45 86.8387L443.866 84.0549L446.762 80.2429L452.918 76.4752L457.7 73.8763L460.809 73.2783L462.21 71.3152L468.072 70.8781L465.627 75.4444L467.525 77.2655L469.658 78.8709L465.682 84.4325ZM538.244 54.7783L543.072 55.4695L546.453 56.5976L548.117 58.9818L545.951 61.3172L537.295 65.0931L530.351 66.8466L526.573 68.779L531.532 68.7346L521.584 73.9386L515.662 76.3519L505.594 83.2573L499.34 84.6493L496.286 86.3568L487.975 87.251L490.49 88.2968L487.457 89.7826L486.061 93.8664L481.244 96.6881L475.269 99.0073L471.355 102.198L465.614 104.624L464.48 106.454L469.344 106.142L467.83 108.11L456.672 112.919L451.278 110.712L442.15 111.953L438.897 110.985L434.082 110.565L437.255 106.706L443.912 104.878L448.08 99.0066L450.223 98.4321L454.011 101.953L455.266 96.7124L452.58 95.1356L457.779 91.9421L464.207 89.9667L467.775 87.0645L467.601 83.7928L471.135 79.4511L477.308 79.8154L478.27 80.7307L485.147 77.6467L480.834 76.6651L471.975 77.2066L471.054 74.3169L473.154 70.8557L473.538 68.3334L476.705 65.3832L482.057 63.7276L484.965 63.4449L490.978 62.0331L498.15 58.7742L500.22 59.2325L499.606 61.6808L506.881 56.9496L511.342 55.5402L516.221 54.5643L522.935 54.1975L522.937 55.1516L530.55 53.6564L534.377 54.2176L538.244 54.7783ZM625.112 51.1163L635.456 58.1212L630.458 61.4918L622.052 61.8758L610.017 62.7269L610.435 64.279L618.588 63.3207L624.147 66.3128L629.306 63.6565L630.184 66.7669L626.19 71.7762L632.914 68.579L644.59 65.2258L650.928 66.9021L651.583 70.5848L641.001 76.6647L639.257 78.6168L631.269 80.0798L636.749 80.4849L632.547 86.6088L629.327 92.0033L627.437 101.14L629.588 106.436L625.301 106.769L620.292 109.316L624.487 113.558L623.859 120.295L620.683 121.024L623.155 127.759L616.588 128.318L619.384 131.472L617.918 134.195L613.507 135.385L609.357 135.408L612.085 140.59L611.49 143.971L606.102 140.829L604.12 142.864L607.85 144.758L611.013 149.363L611.137 155.377L605.273 156.807L603.393 153.943L600.406 149.649L600.439 154.719L595.991 158.618L604.277 158.931L608.575 159.334L598.854 165.727L588.924 171.459L578.82 173.953L575.194 173.984L571.149 176.754L564.758 184.281L556.325 189.227L553.912 189.517L548.959 191.24L543.641 192.875L539.575 197.183L538.268 202.029L535.352 206.535L528.221 211.983L528.31 217.259L525.328 222.795L521.898 229.272L516.679 229.674L512.723 224.265L505.527 224.231L503.066 220.573L502.604 214.007L499.125 205.546L498.821 201.068L500.444 194.841L498 188.379L501.11 183.169L499.816 180.662L506.273 172.275L512.207 169.581L514.644 166.538L517.527 160.811L512.856 163.414L510.679 164.504L507.375 165.546L504.412 163.156L506.306 158.153L509.231 154.205L512.181 154.097L517.768 156.075L514.36 151.342L512.702 148.776L509.155 149.832L507.418 147.97L514.08 140.918L513.589 138.076L513.817 132.765L514.554 124.522L512.564 121.475L514.441 118.171L509.659 113.523L504.14 112.942L496.538 113.264L489.385 113.85L487.925 111.307L486.817 106.251L495.722 103.705L501.399 103.276L491.576 101.162L488.244 97.8263L491.167 94.634L504.013 90.6559L516.31 86.6559L519.624 83.6089L515.503 80.5855L520.405 77.2104L533.461 71.2509L537.548 70.3308L539.847 66.4561L547.013 64.174L554.858 62.8075L561.61 62.7302L561.997 65.4349L571.249 60.643L574.171 63.9031L576.809 64.5881L579.673 67.4047L577.359 62.7287L580.151 58.9874L590.666 53.7279L597.604 54.1257L602.163 50.855L609.707 50L625.112 51.1163Z" fill="white"/>
</g>
<defs>
<filter id="filter0_d_126_6" x="0" y="0" width="1523" height="906" filterUnits="userSpaceOnUse" color-interpolation-filters="sRGB">
<feFlood flood-opacity="0" result="BackgroundImageFix"/>
<feColorMatrix in="SourceAlpha" type="matrix" values="0 0 0 0 0 0 0 0 0 0 0 0 0 0 0 0 0 0 127 0" result="hardAlpha"/>
<feOffset/>
<feGaussianBlur stdDeviation="25"/>
<feColorMatrix type="matrix" values="0 0 0 0 0 0 0 0 0 0 0 0 0 0 0 0 0 0 0.12 0"/>
<feBlend mode="normal" in2="BackgroundImageFix" result="effect1_dropShadow_126_6"/>
<feBlend mode="normal" in="SourceGraphic" in2="effect1_dropShadow_126_6" result="shape"/>
</filter>
</defs>
</svg>
